<svg width="34" height="31" viewBox="0 0 34 31" fill="none" xmlns="http://www.w3.org/2000/svg">
<g clip-path="url(#clip0_554_47)">
<path d="M16.7917 2.79121C21.2782 2.79121 21.8095 2.80937 23.5739 2.88203C25.2137 2.94863 26.0992 3.20293 26.6896 3.41484C27.4701 3.69336 28.0342 4.03242 28.618 4.57129C29.2083 5.11621 29.5691 5.63086 29.8708 6.35137C30.1004 6.89629 30.3759 7.71973 30.448 9.22734C30.5267 10.8621 30.5464 11.3525 30.5464 15.4879C30.5464 19.6293 30.5267 20.1197 30.448 21.7484C30.3759 23.2621 30.1004 24.0795 29.8708 24.6244C29.5691 25.3449 29.2018 25.8656 28.618 26.4045C28.0277 26.9494 27.4701 27.2824 26.6896 27.5609C26.0992 27.7729 25.2072 28.0271 23.5739 28.0938C21.8029 28.1664 21.2716 28.1846 16.7917 28.1846C12.3051 28.1846 11.7738 28.1664 10.0094 28.0938C8.3696 28.0271 7.4841 27.7729 6.89377 27.5609C6.11322 27.2824 5.54912 26.9434 4.96535 26.4045C4.37502 25.8596 4.01426 25.3449 3.71253 24.6244C3.48296 24.0795 3.20747 23.2561 3.13532 21.7484C3.05661 20.1137 3.03693 19.6232 3.03693 15.4879C3.03693 11.3465 3.05661 10.8561 3.13532 9.22734C3.20747 7.71367 3.48296 6.89629 3.71253 6.35137C4.01426 5.63086 4.38158 5.11016 4.96535 4.57129C5.55568 4.02637 6.11322 3.69336 6.89377 3.41484C7.4841 3.20293 8.37616 2.94863 10.0094 2.88203C11.7738 2.80937 12.3051 2.79121 16.7917 2.79121ZM16.7917 0C12.233 0 11.6623 0.0181641 9.87166 0.0908203C8.08755 0.163477 6.86097 0.429883 5.79837 0.811328C4.68986 1.21094 3.75189 1.7377 2.82048 2.60352C1.8825 3.46328 1.31185 4.3291 0.878939 5.34629C0.465706 6.3332 0.1771 7.45937 0.0983887 9.10625C0.0196777 10.7652 0 11.292 0 15.5C0 19.708 0.0196777 20.2348 0.0983887 21.8877C0.1771 23.5346 0.465706 24.6668 0.878939 25.6477C1.31185 26.6709 1.8825 27.5367 2.82048 28.3965C3.75189 29.2562 4.68986 29.7891 5.79181 30.1826C6.86097 30.5641 8.08099 30.8305 9.8651 30.9031C11.6558 30.9758 12.2264 30.9939 16.7851 30.9939C21.3438 30.9939 21.9144 30.9758 23.7051 30.9031C25.4892 30.8305 26.7158 30.5641 27.7784 30.1826C28.8804 29.7891 29.8183 29.2562 30.7497 28.3965C31.6812 27.5367 32.2584 26.6709 32.6847 25.6537C33.0979 24.6668 33.3866 23.5406 33.4653 21.8938C33.544 20.2408 33.5637 19.7141 33.5637 15.5061C33.5637 11.298 33.544 10.7713 33.4653 9.11836C33.3866 7.47148 33.0979 6.33926 32.6847 5.3584C32.2715 4.3291 31.7008 3.46328 30.7629 2.60352C29.8314 1.74375 28.8935 1.21094 27.7915 0.817383C26.7224 0.435937 25.5023 0.169531 23.7182 0.096875C21.921 0.0181641 21.3503 0 16.7917 0Z" fill="white"/>
<path d="M16.7917 7.53809C12.0297 7.53809 8.16626 11.1043 8.16626 15.5C8.16626 19.8957 12.0297 23.4619 16.7917 23.4619C21.5537 23.4619 25.4171 19.8957 25.4171 15.5C25.4171 11.1043 21.5537 7.53809 16.7917 7.53809ZM16.7917 20.6646C13.7023 20.6646 11.1966 18.3518 11.1966 15.5C11.1966 12.6482 13.7023 10.3354 16.7917 10.3354C19.8811 10.3354 22.3867 12.6482 22.3867 15.5C22.3867 18.3518 19.8811 20.6646 16.7917 20.6646Z" fill="white"/>
<path d="M27.7718 7.22319C27.7718 8.25248 26.8666 9.08198 25.7581 9.08198C24.643 9.08198 23.7444 8.24643 23.7444 7.22319C23.7444 6.19389 24.6496 5.3644 25.7581 5.3644C26.8666 5.3644 27.7718 6.19994 27.7718 7.22319Z" fill="white"/>
</g>
<defs>
<clipPath id="clip0_554_47">
<rect width="33.5833" height="31" fill="white"/>
</clipPath>
</defs>
</svg>
