<svg width="47" height="47" viewBox="0 0 47 47" fill="none" xmlns="http://www.w3.org/2000/svg">
<path d="M1.02563 23.4613C1.02563 11.4447 10.8906 1.67273 23.0683 1.67273C35.246 1.67273 45.1108 11.4447 45.1108 23.4613C45.1108 35.4778 35.246 45.2499 23.0683 45.2499C10.8906 45.2499 1.02563 35.4778 1.02563 23.4613ZM17.4597 15.4853V31.4373C17.4597 33.1992 19.4847 34.2091 20.9007 33.1506C20.9014 33.1501 20.9021 33.1496 20.9028 33.1491L31.655 25.1795C31.6558 25.1789 31.6567 25.1783 31.6576 25.1776C32.8216 24.3223 32.8216 22.6004 31.6576 21.745C31.6567 21.7444 31.6559 21.7437 31.655 21.7431L20.9027 13.7734C20.9019 13.7728 20.9011 13.7722 20.9003 13.7716C19.4844 12.7137 17.4597 13.7236 17.4597 15.4853Z" stroke="white" stroke-width="2"/>
</svg>
