<svg width="34" height="31" viewBox="0 0 34 31" fill="none" xmlns="http://www.w3.org/2000/svg">
<g clip-path="url(#clip0_554_51)">
<path fill-rule="evenodd" clip-rule="evenodd" d="M2.35556 2.17913C0 4.35825 0 7.86548 0 14.88V16.12C0 23.1345 0 26.6417 2.35556 28.8209C4.71113 31 8.50232 31 16.0848 31H17.4252C25.0077 31 28.7988 31 31.1545 28.8209C33.51 26.6417 33.51 23.1345 33.51 16.12V14.88C33.51 7.86548 33.51 4.35825 31.1545 2.17913C28.7988 0 25.0077 0 17.4252 0H16.0848C8.50232 0 4.71113 0 2.35556 2.17913ZM5.6549 9.42923C5.83641 17.4892 10.1927 22.333 17.8302 22.333H18.2631V17.7217C21.0696 17.9801 23.1917 19.8788 24.0434 22.333H28.0088C26.9198 18.6646 24.0573 16.6367 22.2701 15.8617C24.0573 14.9059 26.5706 12.5809 27.171 9.42923H23.5686C22.7867 11.9867 20.4692 14.3117 18.2631 14.5313V9.42923H14.6606V18.3676C12.4266 17.8509 9.60627 15.3451 9.48061 9.42923H5.6549Z" fill="white"/>
</g>
<defs>
<clipPath id="clip0_554_51">
<rect width="33.51" height="31" fill="white"/>
</clipPath>
</defs>
</svg>
